<svg width="84" height="85" viewBox="0 0 84 85" fill="none" xmlns="http://www.w3.org/2000/svg">
<path d="M45.332 39.1679C46.6758 40.5156 47.0781 42.539 46.3476 44.2968C45.621 46.0546 43.9023 47.1991 41.9999 47.1991C40.0975 47.1991 38.3788 46.0546 37.6522 44.2968C36.9217 42.539 37.3241 40.5156 38.6678 39.1679C39.5428 38.2695 40.7459 37.7656 41.9998 37.7656C43.2537 37.7656 44.457 38.2695 45.332 39.1679ZM71.457 71.957C63.6445 79.7734 53.047 84.164 41.996 84.168C30.945 84.168 20.344 79.7774 12.531 71.965C4.71457 64.1486 0.323975 53.551 0.323975 42.5C0.323975 31.449 4.71457 20.852 12.531 13.035C20.3435 5.22253 30.945 0.832031 41.996 0.832031C53.047 0.835938 63.644 5.22653 71.457 13.043C79.2695 20.8555 83.656 31.453 83.656 42.5C83.656 53.547 79.2693 64.145 71.457 71.957ZM57.582 53.1679L50.625 35.9609V35.957C50.2539 35.0039 49.4961 34.2461 48.543 33.875L31.332 26.918C29.9258 26.3204 28.2968 26.6368 27.2187 27.7188C26.1367 28.7969 25.8203 30.4258 26.4179 31.8321L33.3749 49.0391V49.043C33.746 49.9961 34.5038 50.7539 35.4569 51.125L52.6639 58.082H52.6678C54.074 58.6797 55.703 58.3633 56.7811 57.2812C57.8631 56.2031 58.1796 54.5742 57.582 53.1679Z" fill="black"/>
</svg>
