<svg width="22" height="20" viewBox="0 0 22 20" fill="none" xmlns="http://www.w3.org/2000/svg">
<path fill-rule="evenodd" clip-rule="evenodd" d="M11.5942 0.21588C11.2486 -0.0719641 10.751 -0.0719595 10.4054 0.215891L0.343147 8.59685C0.036858 8.85196 -0.0785681 9.27509 0.054776 9.65397C0.188119 10.0328 0.541458 10.2857 0.937527 10.2857H2.39474L3.13978 18.5573C3.21338 19.3745 3.88798 20 4.69574 20H8.1877C8.53287 20 8.81268 19.7158 8.81268 19.3651V14.4859C8.81268 12.5811 10.3424 12.5811 10.6876 12.5811H11.3126C11.6578 12.5811 13.1876 12.5811 13.1876 14.4859V19.3651C13.1876 19.7158 13.4674 20 13.8125 20H17.3046C18.1124 20 18.787 19.3745 18.8606 18.5573L19.6056 10.2857H21.0624C21.4585 10.2857 21.8119 10.0328 21.9452 9.65397C22.0785 9.27508 21.9631 8.85195 21.6568 8.59684L11.5942 0.21588Z" fill="#B8B8B8"/>
</svg>
